<?xml version="1.0" encoding="UTF-8"?>
<svg width="205px" height="52px" viewBox="0 0 205 52" version="1.1" xmlns="http://www.w3.org/2000/svg" xmlns:xlink="http://www.w3.org/1999/xlink">
    <title>Logo / GO Plus / Positive</title>
    <g id="_Not-Connected-Portal-Home-Copy" stroke="none" stroke-width="1" fill="none" fill-rule="evenodd">
        <g id="001---Not-conneced----Tablet" transform="translate(-286.000000, -72.000000)">
            <g id="Logo-/-GO-Plus-/-Positive" transform="translate(286.000000, 72.000000)">
                <g id="GO-Plus-TM-MC---RGB-Colour-01">
                    <g id="Group" transform="translate(0.000000, 13.260000)" fill="#658D1B">
                        <path d="M43.1314,0.1144 C36.0568,0.1144 30.251,5.5354 29.6374,12.4488 L56.6254,12.4488 C56.0118,5.5354 50.206,0.1144 43.1314,0.1144 Z" id="Path"></path>
                        <path d="M14.7862,0.169 L14.7862,12.4488 L27.066,12.4488 C26.4862,5.9358 21.2992,0.7488 14.7862,0.169 Z" id="Path"></path>
                        <polygon id="Path" points="14.7862 27.2116 27.1024 27.2116 27.1024 14.8746 14.7862 14.8772"></polygon>
                        <path d="M0.0234,13.663 C0.0234,20.735 5.4444,26.5434 12.3578,27.157 L12.3578,14.8772 L12.3578,12.4488 L12.3578,0.169 C5.4418,0.7852 0.0234,6.591 0.0234,13.663 Z" id="Path"></path>
                        <path d="M43.1314,27.2116 C50.2034,27.2116 56.0118,21.7906 56.6254,14.8772 L29.6374,14.8772 C30.2536,21.7906 36.0594,27.2116 43.1314,27.2116 Z" id="Path"></path>
                    </g>
                    <g id="Group" transform="translate(60.320000, 13.260000)" fill="#080808" fill-rule="nonzero">
                        <circle id="Oval" cx="18.8474" cy="24.791" r="2.3374"></circle>
                        <g id="Path">
                            <path d="M28.5246,18.5484 C23.166,13.7436 14.9968,13.741 9.646,18.5562 L11.8794,21.1328 C15.9536,17.4278 22.2144,17.4226 26.2964,21.1224 L28.5246,18.5484 Z"></path>
                            <path d="M0.1976,7.6596 L2.4362,10.2414 C11.9158,1.8694 26.2444,1.8746 35.7188,10.2544 L37.9574,7.6752 C26.793,-2.3452 11.362,-2.3504 0.1976,7.6596 Z"></path>
                            <path d="M31.0076,15.6858 L33.241,13.1118 C25.1862,5.967 12.9818,5.9696 4.9348,13.1222 L7.1682,15.6988 C13.9386,9.6538 24.232,9.6512 31.0076,15.6858 Z"></path>
                        </g>
                    </g>
                    <g id="Group" transform="translate(102.700000, 0.000000)">
                        <path d="M19.968,29.471 C20.2462,28.5558 20.3866,27.6276 20.3866,26.715 C20.3866,25.805 20.2462,24.8872 19.968,23.9876 C19.6924,23.0984 19.2738,22.2872 18.7252,21.5748 C18.59,21.398 18.4444,21.2316 18.2884,21.073 C17.823,20.5946 17.2744,20.189 16.6504,19.8666 C15.8236,19.4376 14.833,19.2192 13.7046,19.2192 C12.649,19.2192 11.6948,19.4454 10.868,19.89 C10.0282,20.3424 9.3002,20.9326 8.7022,21.6424 C8.1042,22.3522 7.6466,23.1712 7.3398,24.0786 C7.0304,24.9886 6.8744,25.9116 6.8744,26.8216 C6.8744,27.7316 7.0304,28.6442 7.3398,29.536 C7.6466,30.4252 8.1068,31.2364 8.7048,31.9488 C9.3002,32.6586 10.0282,33.2384 10.8654,33.6726 C11.6922,34.1016 12.649,34.32 13.7072,34.32 C14.833,34.32 15.821,34.0938 16.6478,33.6492 C17.4824,33.1994 18.1818,32.6144 18.7278,31.9098 C19.2062,31.291 19.5806,30.5812 19.851,29.809 C19.89,29.6972 19.9316,29.588 19.968,29.471 Z" id="Path"></path>
                        <path d="M23.985,17.2848 L23.985,17.2848 C22.8956,16.0888 21.5774,15.1372 20.0668,14.4508 C18.5536,13.7644 16.8792,13.416 15.0904,13.416 C13.9334,13.416 12.8726,13.5512 11.9366,13.8138 C11.011,14.0764 10.1634,14.4144 9.4224,14.82 C8.6762,15.2282 8.034,15.6988 7.5166,16.2188 C7.2644,16.471 7.033,16.7258 6.825,16.9754 L6.825,14.1362 L0.1534,14.1362 L0.1534,51.7946 L7.0798,51.7946 L7.0798,36.881 C7.839,37.7832 8.8088,38.5268 9.9736,39.1014 C11.4712,39.8424 13.1404,40.2168 14.9344,40.2168 C16.861,40.2168 18.6134,39.8502 20.1448,39.13 C21.671,38.4124 22.9866,37.4322 24.0604,36.218 C25.129,35.0064 25.9662,33.5686 26.5434,31.941 C27.118,30.3186 27.4118,28.5584 27.4118,26.715 C27.4118,24.869 27.1102,23.1166 26.5174,21.5098 C25.9246,19.9004 25.0718,18.4782 23.985,17.2848 Z M18.7252,31.9072 C18.1818,32.6118 17.4824,33.1968 16.6452,33.6466 C15.8184,34.0912 14.8304,34.3174 13.7046,34.3174 C12.6464,34.3174 11.6896,34.099 10.8628,33.67 C10.0256,33.2358 9.2976,32.656 8.7022,31.9462 C8.1042,31.2364 7.6466,30.4252 7.3372,29.5334 C7.0278,28.6416 6.8718,27.729 6.8718,26.819 C6.8718,25.909 7.0278,24.986 7.3372,24.076 C7.644,23.1712 8.1042,22.3496 8.6996,21.6398 C9.2976,20.93 10.0256,20.3398 10.8654,19.8874 C11.6922,19.4428 12.6464,19.2166 13.702,19.2166 C14.8278,19.2166 15.8184,19.435 16.6478,19.864 C17.2718,20.189 17.8204,20.592 18.2858,21.0704 C18.4418,21.229 18.5874,21.398 18.7226,21.5722 C19.2712,22.2846 19.6898,23.0958 19.9654,23.985 C20.2436,24.8846 20.384,25.8024 20.384,26.7124 C20.384,27.625 20.2436,28.5506 19.9654,29.4684 C19.9316,29.5828 19.8874,29.692 19.8484,29.8038 C19.578,30.5812 19.2062,31.2884 18.7252,31.9072 Z" id="Shape" fill="#080808" fill-rule="nonzero"></path>
                        <rect id="Rectangle" fill="#080808" fill-rule="nonzero" x="31.5016" y="0" width="6.9264" height="39.5018"></rect>
                        <path d="M59.774,28.0488 C59.774,28.8262 59.6596,29.6062 59.4308,30.3706 C59.2046,31.1246 58.8718,31.8006 58.4428,32.3726 C58.019,32.9394 57.4574,33.41 56.7788,33.774 C56.1054,34.1354 55.315,34.3174 54.4284,34.3174 C53.5236,34.3174 52.7956,34.1328 52.2678,33.7714 C51.7244,33.3996 51.2902,32.9186 50.9808,32.344 C50.6636,31.759 50.4556,31.0882 50.3594,30.3524 C50.2606,29.588 50.2086,28.847 50.2086,28.1502 L50.2086,14.1362 L43.2822,14.1362 L43.2822,29.8922 C43.2822,31.187 43.459,32.4636 43.81,33.6856 C44.1636,34.9258 44.7304,36.0386 45.4922,36.998 C46.2592,37.9626 47.2524,38.7478 48.4432,39.3328 C49.634,39.9204 51.0796,40.2168 52.7384,40.2168 C54.6546,40.2168 56.3394,39.7202 57.7512,38.7374 C58.7236,38.0588 59.5062,37.297 60.0834,36.465 L60.0834,39.4992 L66.703,39.4992 L66.703,14.1362 L59.774,14.1362 L59.774,28.0488 Z" id="Path" fill="#080808" fill-rule="nonzero"></path>
                        <path d="M88.8966,26.1716 C88.1036,25.5892 87.2092,25.116 86.2368,24.7624 C85.28,24.4166 84.3258,24.1358 83.4028,23.9304 C81.6894,23.5274 80.3764,23.1296 79.4976,22.7474 C78.7332,22.4146 78.3744,21.8868 78.3744,21.0834 C78.3744,20.28 78.7072,19.7236 79.3884,19.383 C80.1502,19.0034 81.003,18.8084 81.9286,18.8084 C82.9816,18.8084 83.9696,19.058 84.864,19.5546 C85.7688,20.0564 86.4864,20.6492 86.996,21.32 L87.2508,21.6528 L91.8346,17.5968 L91.6084,17.3082 C90.5762,15.9926 89.1644,15.002 87.4146,14.365 C85.6882,13.7384 83.8942,13.4186 82.082,13.4186 C80.8262,13.4186 79.586,13.5772 78.3978,13.8918 C77.1992,14.209 76.1098,14.7004 75.153,15.3556 C74.1858,16.0186 73.3954,16.8818 72.8078,17.9166 C72.2124,18.9618 71.9108,20.215 71.9108,21.6424 C71.9108,22.8618 72.1318,23.9044 72.5686,24.7416 C73.0028,25.5736 73.5904,26.2808 74.3132,26.8424 C75.023,27.3936 75.842,27.8434 76.7468,28.1814 C77.6256,28.509 78.5486,28.782 79.482,28.99 C81.3228,29.4242 82.719,29.8636 83.6316,30.2952 C84.4298,30.6722 84.8172,31.278 84.8172,32.1438 C84.8172,32.6118 84.7158,33.007 84.5208,33.3164 C84.3154,33.6414 84.0502,33.891 83.7096,34.0834 C83.3534,34.2862 82.9582,34.4344 82.537,34.528 C82.1054,34.6242 81.679,34.671 81.2656,34.671 C80.0046,34.671 78.8424,34.3928 77.8128,33.8468 C76.7754,33.2956 75.92,32.591 75.2752,31.7512 L75.0126,31.4106 L70.3716,35.7604 L70.6342,36.0438 C71.864,37.3802 73.4292,38.4228 75.2882,39.1404 C77.1368,39.8554 79.0608,40.2168 81.0108,40.2168 C82.3628,40.2168 83.694,40.066 84.9654,39.7722 C86.2524,39.4732 87.4016,38.9792 88.3766,38.3058 C89.362,37.6246 90.1602,36.7276 90.7504,35.6356 C91.3432,34.541 91.6422,33.1968 91.6422,31.6342 C91.6422,30.3784 91.3848,29.2864 90.8726,28.392 C90.3708,27.5106 89.7052,26.7644 88.8966,26.1716 Z" id="Path" fill="#080808" fill-rule="nonzero"></path>
                    </g>
                    <g id="Group" transform="translate(193.700000, 37.440000)" fill="#231F20" fill-rule="nonzero">
                        <polygon id="Path" points="1.9708 0.1378 1.9708 0.4264 1.1544 0.4264 1.1544 2.561 0.8216 2.561 0.8216 0.4264 0.0052 0.4264 0.0052 0.1378"></polygon>
                        <path d="M2.2646,0.1378 L2.7352,0.1378 L3.432,2.1866 L4.1236,0.1378 L4.5916,0.1378 L4.5916,2.561 L4.277,2.561 L4.277,1.131 C4.277,1.0816 4.277,1.001 4.2796,0.884 C4.2822,0.7696 4.2822,0.6474 4.2822,0.5148 L3.5906,2.561 L3.2656,2.561 L2.5662,0.5148 L2.5662,0.5902 C2.5662,0.65 2.5688,0.741 2.5714,0.8606 C2.574,0.9802 2.5766,1.0712 2.5766,1.1284 L2.5766,2.5584 L2.262,2.5584 L2.262,0.1378 L2.2646,0.1378 Z" id="Path"></path>
                        <polygon id="Path" points="5.603 0.1378 5.8526 0.1378 5.083 2.561 4.8334 2.561"></polygon>
                        <path d="M6.0216,0.1378 L6.4922,0.1378 L7.189,2.1866 L7.8806,0.1378 L8.3486,0.1378 L8.3486,2.561 L8.034,2.561 L8.034,1.131 C8.034,1.0816 8.034,1.001 8.0366,0.884 C8.0392,0.7696 8.0392,0.6474 8.0392,0.5148 L7.3476,2.561 L7.0226,2.561 L6.3232,0.5148 L6.3232,0.5902 C6.3232,0.65 6.3258,0.741 6.3284,0.8606 C6.331,0.9802 6.3336,1.0712 6.3336,1.1284 L6.3336,2.5584 L6.019,2.5584 L6.019,0.1378 L6.0216,0.1378 Z" id="Path"></path>
                        <path d="M10.5586,0.3146 C10.725,0.4758 10.8186,0.6604 10.8368,0.8658 L10.517,0.8658 C10.4806,0.7098 10.4104,0.585 10.3038,0.494 C10.1972,0.403 10.049,0.3562 9.8566,0.3562 C9.6226,0.3562 9.4328,0.4394 9.2872,0.6084 C9.1416,0.7774 9.0714,1.0348 9.0714,1.3806 C9.0714,1.664 9.1364,1.8954 9.2664,2.0722 C9.3964,2.249 9.5914,2.3374 9.8488,2.3374 C10.0854,2.3374 10.2674,2.2438 10.3922,2.0592 C10.4572,1.9604 10.5066,1.833 10.5404,1.6718 L10.8602,1.6718 C10.8316,1.9266 10.738,2.1424 10.5794,2.314 C10.3896,2.522 10.1322,2.626 9.8098,2.626 C9.5316,2.626 9.2976,2.5402 9.1078,2.3686 C8.8582,2.1424 8.7334,1.794 8.7334,1.3234 C8.7334,0.9646 8.827,0.6734 9.0142,0.442 C9.217,0.1924 9.4952,0.0702 9.8514,0.0702 C10.1556,0.0728 10.3922,0.1534 10.5586,0.3146 Z" id="Path"></path>
                    </g>
                </g>
            </g>
        </g>
    </g>
</svg>