<?xml version="1.0" encoding="UTF-8"?>
<svg width="36px" height="36px" viewBox="0 0 36 36" version="1.1" xmlns="http://www.w3.org/2000/svg" xmlns:xlink="http://www.w3.org/1999/xlink">
    <title>Logo/Instagram</title>
    <g id="Logo/Instagram" stroke="none" stroke-width="1" fill="none" fill-rule="evenodd">
        <path d="M29.9390022,13.0013888 C29.8827669,11.7360579 29.6765098,10.8661542 29.3810458,10.112371 C29.0762397,9.31224861 28.6073072,8.59590009 27.9929324,8.00039681 C27.3926623,7.39562568 26.665817,6.92569237 25.8686318,6.62803156 C25.1044183,6.33491383 24.2321307,6.13029473 22.9566711,6.07450604 C21.6716862,6.01399259 21.2637516,6 18.004671,6 C14.7455904,6 14.3376558,6.01399259 13.0574335,6.06978128 C11.7819739,6.12556998 10.9051068,6.33037074 10.1454728,6.6233068 C9.3387625,6.92569237 8.61667976,7.39090093 8.01640958,8.00039681 C7.40679738,8.59590009 6.93328547,9.31697336 6.63305882,10.1078279 C6.33759475,10.8661542 6.13133771,11.7313331 6.07510244,12.9966641 C6.0141046,14.2714445 6,14.6761396 6,17.9093391 C6,21.1425386 6.0141046,21.5472337 6.07033987,22.8172894 C6.12657514,24.0826204 6.33301529,24.952524 6.62847937,25.7063072 C6.93328547,26.5064296 7.40679738,27.2227781 8.01640958,27.8182814 C8.61667976,28.4230526 9.34352507,28.8929859 10.1407103,29.1906467 C10.9051068,29.4837644 11.7772113,29.6883835 13.0528541,29.7441722 C14.3328932,29.8001426 14.741011,29.8139535 18.0000916,29.8139535 C21.2591722,29.8139535 21.6671068,29.8001426 22.947329,29.7441722 C24.2227887,29.6883835 25.0996558,29.4837644 25.8592897,29.1906467 C27.4725273,28.571883 28.747987,27.306552 29.3717037,25.7063072 C29.6669847,24.947981 29.8734249,24.0826204 29.9296601,22.8172894 C29.9858954,21.5472337 30,21.1425386 30,17.9093391 C30,14.6761396 29.9952374,14.2714445 29.9390022,13.0013888 Z M27.7773334,22.7242477 C27.7256776,23.8872691 27.5287626,24.5153007 27.3646362,24.9339884 C26.961281,25.9714398 26.1313072,26.7948226 25.0855512,27.1949746 C24.663512,27.3577976 24.0258737,27.5531489 22.858122,27.6042128 C21.5920043,27.6601832 21.2122789,27.6739941 18.0094336,27.6739941 C14.8065882,27.6739941 14.4221003,27.6601832 13.1605621,27.6042128 C11.9882309,27.5531489 11.3551721,27.3577976 10.9331329,27.1949746 C10.4127277,27.0041665 9.93903268,26.7017809 9.55454468,26.3063536 C9.15595209,25.9201942 8.85114599,25.4549856 8.65881043,24.9387131 C8.49468407,24.5200254 8.29776906,23.8872691 8.24629636,22.7289725 C8.18987797,21.4729094 8.17595649,21.0960178 8.17595649,17.918607 C8.17595649,14.7411962 8.18987797,14.3597615 8.24629636,13.1084231 C8.29776906,11.9454017 8.49468407,11.3173702 8.65881043,10.8986825 C8.85114599,10.3822283 9.15595209,9.91247665 9.55930725,9.5308603 C9.9483747,9.13543302 10.4173072,8.83304746 10.9378954,8.64242095 C11.3599347,8.47959795 11.9977561,8.28424669 13.1653246,8.23300108 C14.4314423,8.17721239 14.8113508,8.1632198 18.014013,8.1632198 C21.2216209,8.1632198 21.6013464,8.17721239 22.8628846,8.23300108 C24.0352157,8.28424669 24.6682745,8.47959795 25.0903138,8.64242095 C25.6107189,8.83304746 26.0844139,9.13543302 26.4689019,9.5308603 C26.8674945,9.91701974 27.1723006,10.3822283 27.3646362,10.8986825 C27.5287626,11.3173702 27.7256776,11.9499448 27.7773334,13.1084231 C27.8335687,14.3644862 27.8476732,14.7411962 27.8476732,17.918607 C27.8476732,21.0960178 27.8335687,21.4681846 27.7773334,22.7242477 Z" id="Shape" fill="#FFFFFF" fill-rule="nonzero"></path>
        <path d="M17.9069767,11.7674419 C14.5175026,11.7674419 11.7674419,14.5173203 11.7674419,17.9069767 C11.7674419,21.2966332 14.5175026,24.0465116 17.9069767,24.0465116 C21.2966332,24.0465116 24.0465116,21.2966332 24.0465116,17.9069767 C24.0465116,14.5173203 21.2966332,11.7674419 17.9069767,11.7674419 Z M17.9069767,21.8895404 C15.7080588,21.8895404 13.9244131,20.106077 13.9244131,17.9069767 C13.9244131,15.7078765 15.7080588,13.9244131 17.9069767,13.9244131 C20.106077,13.9244131 21.8895404,15.7078765 21.8895404,17.9069767 C21.8895404,20.106077 20.106077,21.8895404 17.9069767,21.8895404 L17.9069767,21.8895404 Z" id="Shape" fill="#FFFFFF" fill-rule="nonzero"></path>
        <path d="M25.7209302,11.4883721 C25.7209302,12.2589299 25.096179,12.8837209 24.3254927,12.8837209 C23.5549838,12.8837209 22.9302326,12.2589299 22.9302326,11.4883721 C22.9302326,10.7176367 23.5549838,10.0930233 24.3254927,10.0930233 C25.096179,10.0930233 25.7209302,10.7176367 25.7209302,11.4883721 L25.7209302,11.4883721 Z" id="Path" fill="#FFFFFF" fill-rule="nonzero"></path>
    </g>
</svg>