<?xml version="1.0" encoding="UTF-8"?>
<svg width="586px" height="104px" viewBox="0 0 586 104" version="1.1" xmlns="http://www.w3.org/2000/svg" xmlns:xlink="http://www.w3.org/1999/xlink">
    <title>Logo/Metrolinx</title>
    <g id="Logo/Metrolinx" stroke="none" stroke-width="1" fill="none" fill-rule="evenodd">
        <path d="M373.0987,27.7869 C376.6987,27.7869 380.0377,28.3509 383.1187,29.4779 C386.1977,30.6059 388.8537,32.2109 391.0877,34.2929 C393.3217,36.3749 395.0677,38.9019 396.3257,41.8719 C397.5827,44.8429 398.2117,48.1719 398.2117,51.8589 C398.2117,55.5029 397.5827,58.8319 396.3257,61.8449 C395.0677,64.8609 393.3217,67.4409 391.0877,69.5879 C388.8537,71.7349 386.1977,73.3939 383.1187,74.5649 C380.0377,75.7359 376.6987,76.3219 373.0987,76.3219 C369.4977,76.3219 366.1697,75.7359 363.1127,74.5649 C360.0547,73.3939 357.4087,71.7349 355.1747,69.5879 C352.9407,67.4409 351.1957,64.8609 349.9377,61.8449 C348.6787,58.8319 348.0507,55.5029 348.0507,51.8589 C348.0507,48.1719 348.6787,44.8429 349.9377,41.8719 C351.1957,38.9019 352.9407,36.3749 355.1747,34.2929 C357.4087,32.2109 360.0547,30.6059 363.1127,29.4779 C366.1697,28.3509 369.4977,27.7869 373.0987,27.7869 Z M452.861,29.023 L452.861,75.086 L441.671,75.086 L441.671,29.023 L452.861,29.023 Z M74.6383,30.9249 L87.2581,43.5849 L99.9181,30.9249 C102.4481,28.3939 106.5661,28.3949 109.0971,30.9249 L125.0231,46.8509 L145.5383,46.8509 L145.5383,57.5119 L123.3281,57.5119 C121.5941,57.5119 119.9641,56.8359 118.7381,55.6099 L104.5081,41.4909 L94.8231,51.1759 L108.0283,64.4229 L145.5383,64.4229 L145.5383,75.0849 L106.3313,75.0849 C104.6003,75.0849 102.9713,74.4109 101.7463,73.1889 L87.2781,58.7209 L72.8141,73.1849 C71.5841,74.4109 69.9551,75.0849 68.2241,75.0849 L29.0171,75.0849 L29.0171,64.4229 L66.4201,64.4229 L79.7001,51.1429 L70.0483,41.4899 L55.9293,55.6099 C54.6983,56.8379 53.0693,57.5119 51.3393,57.5119 L29.0171,57.5119 L29.0171,46.8509 L49.5333,46.8509 L65.4583,30.9249 C67.9893,28.3949 72.1073,28.3949 74.6383,30.9249 Z M179.8315,29.0224 L190.3195,58.5604 L190.5805,58.5604 L200.6115,29.0224 L216.7015,29.0224 L216.7015,75.0854 L205.7715,75.0854 L206.0315,42.4894 L205.8355,42.4894 L193.8655,75.0854 L186.0575,75.0854 L174.4125,42.4894 L174.2165,42.4894 L174.4775,75.0854 L164.0015,75.0854 L164.0015,29.0224 L179.8315,29.0224 Z M257.7542,29.0224 L257.7542,38.3914 L237.5192,38.3914 L237.5192,47.1094 L256.6472,47.1094 L256.6472,56.0234 L237.5192,56.0234 L237.5192,65.5864 L258.9252,65.5864 L258.9252,75.0854 L226.7842,75.0854 L226.7842,29.0224 L257.7542,29.0224 Z M300.8109,29.023 L300.8109,38.521 L287.7989,38.521 L287.7989,75.085 L276.6739,75.085 L276.6739,38.521 L263.6609,38.521 L263.6609,29.023 L300.8109,29.023 Z M324.7586,29.0231 C326.9716,29.0231 329.1276,29.2501 331.2326,29.7051 C333.3356,30.1611 335.2226,30.9321 336.8926,32.0151 C338.5626,33.1001 339.8956,34.5321 340.8946,36.3091 C341.8916,38.0881 342.3906,40.3001 342.3906,42.9461 C342.3906,46.0691 341.5446,48.6931 339.8536,50.8181 C338.1626,52.9441 335.8196,54.4611 332.8276,55.3721 L344.8636,75.0851 L331.8506,75.0851 L321.8496,56.8031 L318.0576,56.8031 L318.0576,75.0851 L307.1926,75.0851 L307.1926,29.0231 L324.7586,29.0231 Z M417.4039,29.0224 L417.4039,65.3914 L435.2319,65.3914 L435.2319,75.0854 L406.2139,75.0854 L406.2139,29.0224 L417.4039,29.0224 Z M476.0233,29.0224 L494.5003,59.0804 L494.6953,59.0804 L494.4353,29.0224 L505.2353,29.0224 L505.2353,75.0854 L492.6133,75.0854 L474.0713,44.9624 L473.8763,44.9624 L474.1363,75.0854 L463.3363,75.0854 L463.3363,29.0224 L476.0233,29.0224 Z M525.1433,29.0224 L533.7313,43.3354 L542.1893,29.0224 L555.1363,29.0224 L540.5623,50.7524 L557.2183,75.0854 L543.4903,75.0854 L533.4063,58.8194 L523.7123,75.0854 L510.4393,75.0854 L526.5743,50.7524 L511.7403,29.0224 L525.1433,29.0224 Z M373.0987,37.8059 C371.1477,37.8059 369.3687,38.1639 367.7637,38.8799 C366.1597,39.5949 364.7717,40.5709 363.6007,41.8069 C362.4287,43.0439 361.5287,44.5299 360.9007,46.2629 C360.2707,47.9989 359.9567,49.8649 359.9567,51.8589 C359.9567,53.9409 360.2827,55.8599 360.9327,57.6169 C361.5827,59.3739 362.4837,60.8809 363.6327,62.1379 C364.7817,63.3969 366.1597,64.3829 367.7637,65.0989 C369.3687,65.8139 371.1477,66.1719 373.0987,66.1719 C375.0507,66.1719 376.8287,65.8139 378.4337,65.0989 C380.0377,64.3829 381.4267,63.3969 382.5977,62.1379 C383.7687,60.8809 384.6797,59.3739 385.3297,57.6169 C385.9817,55.8599 386.3067,53.9409 386.3067,51.8589 C386.3067,49.8649 385.9817,47.9989 385.3297,46.2629 C384.6797,44.5299 383.7797,43.0439 382.6307,41.8069 C381.4807,40.5709 380.0927,39.5949 378.4667,38.8799 C376.8397,38.1639 375.0507,37.8059 373.0987,37.8059 Z M323.9416,38.0001 L317.9936,38.0001 L317.9936,48.7361 L323.2886,48.7361 C324.2036,48.7361 325.1406,48.6611 326.0996,48.5081 C327.0586,48.3571 327.9296,48.0851 328.7146,47.6951 C329.4996,47.3041 330.1416,46.7421 330.6426,46.0031 C331.1446,45.2661 331.3956,44.3121 331.3956,43.1411 C331.3956,42.0571 331.1666,41.1781 330.7086,40.5051 C330.2506,39.8331 329.6626,39.3131 328.9436,38.9441 C328.2236,38.5771 327.4176,38.3271 326.5236,38.1961 C325.6296,38.0661 324.7696,38.0001 323.9416,38.0001 Z" id="Shape" fill="#191919"></path>
    </g>
</svg>