<?xml version="1.0" encoding="UTF-8"?>
<svg width="36px" height="36px" viewBox="0 0 36 36" version="1.1" xmlns="http://www.w3.org/2000/svg" xmlns:xlink="http://www.w3.org/1999/xlink">
    <title>Logo/Twitter</title>
    <g id="Logo/Twitter" stroke="none" stroke-width="1" fill="none" fill-rule="evenodd">
        <rect id="Rectangle" x="0" y="0" width="36" height="36"></rect>
        <path d="M24.8658258,11.849009 L24.8233033,11.8206607 C23.9445045,10.9843844 22.9097898,10.5875075 21.7191592,10.6442042 L21.6766366,10.5591592 L21.704985,10.544985 C22.7822222,10.304024 23.4200601,10.0488889 23.6184985,9.76540541 C23.6751952,9.53861862 23.6043243,9.41105105 23.3633634,9.3827027 C22.8247447,9.45357357 22.3144745,9.56696697 21.8750751,9.75123123 C22.442042,9.3827027 22.6546547,9.12756757 22.5270871,9 C21.9742943,9.01417417 21.3648048,9.29765766 20.7411411,9.86462462 C20.9679279,9.46774775 21.0671471,9.24096096 21.0104505,9.21261261 C20.6986186,9.41105105 20.4434835,9.63783784 20.2166967,9.8787988 C19.7347748,10.4174174 19.3520721,10.9135135 19.0544144,11.3670871 L19.0402402,11.3954354 C18.289009,12.6285886 17.7503904,13.8617417 17.4385586,15.1232432 L17.3251652,15.2224625 L17.2968168,15.2366366 C16.8432432,14.6696697 16.2904505,14.1877477 15.6384384,13.805045 C14.873033,13.2947748 13.9658859,12.827027 12.916997,12.3592793 C11.7830631,11.763964 10.6207808,11.282042 9.4584985,10.8993393 C9.44432432,12.2175375 10.0963363,13.2522523 11.3578378,14.0176577 L11.3578378,14.0318318 C10.9184384,14.0318318 10.479039,14.1027027 10.0538138,14.2302703 C10.1388589,15.4492492 11.0034835,16.2855255 12.6335135,16.7390991 L12.6193393,16.7674474 C11.9815015,16.7249249 11.4570571,16.9517117 11.046006,17.4194595 C11.5846246,18.4683483 12.5342943,18.9644444 13.9091892,18.9360961 C13.6398799,19.0778378 13.4272673,19.2195796 13.2855255,19.3896697 C13.0303904,19.658979 12.9453453,19.9708108 13.0303904,20.3251652 C13.328048,20.8637838 13.8524925,21.1047447 14.6320721,21.0622222 L14.6745946,21.1189189 L14.6604204,21.1472673 C13.3138739,22.5363363 11.6838438,23.16 9.7845045,23.0324324 L9.75615616,23.0466066 C8.59387387,23.0324324 7.34654655,22.4796396 6,21.3740541 C7.34654655,23.3159159 9.14666667,24.7191592 11.372012,25.6121321 C13.9091892,26.4484084 16.4605405,26.5192793 18.9977177,25.7963964 L19.0402402,25.7963964 C21.5065465,25.0876877 23.5901502,23.6135736 25.3193994,21.4024024 C26.1131532,20.2542943 26.6092492,19.1487087 26.8076877,18.0856456 C28.0975375,18.1281682 29.0188589,17.7596396 29.6,16.9658859 L29.5858258,16.9375375 C29.1464264,17.0934535 28.3101502,17.0509309 27.076997,16.7957958 L27.076997,16.6540541 C28.4377177,16.4981381 29.2456456,16.0587387 29.5007808,15.3358559 C28.5511111,15.7043844 27.6156156,15.7185586 26.6942943,15.3642042 C26.5242042,14.0885285 25.9147147,12.9120721 24.8658258,11.849009" id="Mask" fill="#FBFBFB"></path>
    </g>
</svg>