<?xml version="1.0" encoding="UTF-8"?>
<svg width="36px" height="36px" viewBox="0 0 36 36" version="1.1" xmlns="http://www.w3.org/2000/svg" xmlns:xlink="http://www.w3.org/1999/xlink">
    <title>Logo/Website</title>
    <g id="Logo/Website" stroke="none" stroke-width="1" fill="none" fill-rule="evenodd">
        <rect id="Rectangle" x="0" y="0" width="36" height="36"></rect>
        <path d="M18,6.22641509 C11.5245283,6.22641509 6.22641509,11.5245283 6.22641509,18 C6.22641509,24.4754717 11.5245283,29.7735849 18,29.7735849 C24.4754717,29.7735849 29.7735849,24.4754717 29.7735849,18 C29.7735849,11.5245283 24.4754717,6.22641509 18,6.22641509 Z M27.9169811,17.0943396 L25.3811321,17.0943396 C25.3358491,15.645283 25.0641509,14.2415094 24.7018868,13.0188679 C25.2,12.7924528 25.6528302,12.5660377 26.1056604,12.2943396 C27.1018868,13.6528302 27.7358491,15.3283019 27.9169811,17.0943396 Z M13.6075472,24.0679245 C14.6943396,23.7509434 15.8716981,23.5698113 17.0943396,23.4792453 L17.0943396,27.7811321 C15.690566,27.4188679 14.4679245,26.0150943 13.6075472,24.0679245 Z M22.3924528,11.9320755 C21.3056604,12.2490566 20.1283019,12.4301887 18.9056604,12.5207547 L18.9056604,8.17358491 C20.309434,8.58113208 21.5320755,9.98490566 22.3924528,11.9320755 Z M17.0943396,8.17358491 L17.0943396,12.4754717 C15.8716981,12.4301887 14.6943396,12.2037736 13.6075472,11.8867925 C14.4679245,9.98490566 15.690566,8.58113208 17.0943396,8.17358491 Z M17.0943396,14.2867925 L17.0943396,17.0943396 L12.4301887,17.0943396 C12.4754717,15.8716981 12.7018868,14.6943396 13.0188679,13.6075472 C14.2415094,14.0150943 15.645283,14.2415094 17.0943396,14.2867925 Z M17.0943396,18.9056604 L17.0943396,21.7132075 C15.645283,21.8037736 14.2415094,22.0301887 12.9735849,22.3924528 C12.6566038,21.3056604 12.4754717,20.1283019 12.3849057,18.9056604 L17.0943396,18.9056604 L17.0943396,18.9056604 Z M18.9056604,27.8264151 L18.9056604,23.5245283 C20.1283019,23.5698113 21.3056604,23.7962264 22.3924528,24.1132075 C21.5320755,26.0150943 20.309434,27.4188679 18.9056604,27.8264151 Z M18.9056604,21.7132075 L18.9056604,18.9056604 L23.5698113,18.9056604 C23.5245283,20.1283019 23.2981132,21.3056604 22.9811321,22.3924528 C21.7584906,21.9849057 20.354717,21.7584906 18.9056604,21.7132075 Z M18.9056604,17.0943396 L18.9056604,14.2867925 C20.354717,14.1962264 21.7584906,13.9698113 23.0264151,13.6075472 C23.3433962,14.6943396 23.5245283,15.8716981 23.6150943,17.0943396 L18.9056604,17.0943396 Z M24.1584906,11.2981132 C23.8867925,10.6641509 23.5698113,10.0754717 23.2075472,9.53207547 C23.8415094,9.93962264 24.4301887,10.3924528 24.9735849,10.890566 C24.7018868,11.0264151 24.4301887,11.1622642 24.1584906,11.2981132 Z M12.7924528,9.53207547 C12.4301887,10.0754717 12.1132075,10.6641509 11.8415094,11.2981132 C11.5698113,11.1622642 11.2981132,11.0264151 11.0264151,10.890566 C11.5698113,10.3471698 12.1584906,9.89433962 12.7924528,9.53207547 Z M9.8490566,12.2943396 C10.3018868,12.5660377 10.754717,12.7924528 11.2528302,13.0188679 C10.890566,14.2867925 10.6641509,15.645283 10.5735849,17.0943396 L8.08301887,17.0943396 C8.26415094,15.3283019 8.89811321,13.6528302 9.8490566,12.2943396 Z M8.08301887,18.9056604 L10.6188679,18.9056604 C10.6641509,20.354717 10.9358491,21.7584906 11.2981132,22.9811321 C10.8,23.2075472 10.3471698,23.4339623 9.89433962,23.7056604 C8.89811321,22.3471698 8.26415094,20.6716981 8.08301887,18.9056604 Z M11.8415094,24.7018868 C12.1132075,25.3358491 12.4301887,25.9245283 12.7924528,26.4679245 C12.1584906,26.0603774 11.5698113,25.6075472 11.0264151,25.109434 C11.2981132,24.9735849 11.5698113,24.8377358 11.8415094,24.7018868 Z M23.2075472,26.4679245 C23.5698113,25.9245283 23.8867925,25.3358491 24.1584906,24.7018868 C24.4301887,24.8377358 24.7018868,24.9735849 24.9735849,25.109434 C24.4301887,25.6528302 23.8415094,26.1056604 23.2075472,26.4679245 Z M26.1509434,23.7056604 C25.6981132,23.4339623 25.245283,23.2075472 24.7471698,22.9811321 C25.109434,21.7132075 25.3358491,20.354717 25.4264151,18.9056604 L27.9622642,18.9056604 C27.7358491,20.6716981 27.1018868,22.3471698 26.1509434,23.7056604 Z" id="Shape" fill="#FFFFFF" fill-rule="nonzero"></path>
    </g>
</svg>